<?xml version="1.0" encoding="utf-8"?>
<!-- Generator: Adobe Illustrator 23.0.0, SVG Export Plug-In . SVG Version: 6.00 Build 0)  -->
<svg version="1.1" id="Layer_1" xmlns="http://www.w3.org/2000/svg" xmlns:xlink="http://www.w3.org/1999/xlink" x="0px" y="0px"
	 viewBox="0 0 352 352" style="enable-background:new 0 0 352 352;" xml:space="preserve">
<style type="text/css">
	.st0{fill:#D0021B;}
</style>
<path class="st0" d="M242.7,176L342.8,75.9c12.3-12.3,12.3-32.2,0-44.5L320.6,9.2c-12.3-12.3-32.2-12.3-44.5,0L176,109.3L75.9,9.2
	C63.7-3.1,43.7-3.1,31.5,9.2L9.2,31.4c-12.3,12.3-12.3,32.2,0,44.5L109.3,176L9.2,276.1c-12.3,12.3-12.3,32.2,0,44.5l22.2,22.2
	c12.3,12.3,32.2,12.3,44.5,0L176,242.7l100.1,100.1c12.3,12.3,32.2,12.3,44.5,0l22.2-22.2c12.3-12.3,12.3-32.2,0-44.5L242.7,176z"/>
</svg>
