<svg xmlns="http://www.w3.org/2000/svg" xmlns:xlink="http://www.w3.org/1999/xlink" id="Layer_1" x="0" y="0" enable-background="new 0 0 4 7" version="1.1" viewBox="0 0 4 7" xml:space="preserve"><style type="text/css">.st0{enable-background:new}.st1{fill:#999}</style><title>Artboard 1</title><desc>Created with Sketch.</desc><g id="Symbols"><g id="Artboard-1"><g class="st0"><path d="M3.6,4.4L2.1,6c0,0,0,0-0.1,0S1.9,6,1.9,6L0.4,4.4c0,0,0,0,0-0.1c0,0,0-0.1,0-0.1l0.2-0.2c0,0,0,0,0.1,0 c0,0,0.1,0,0.1,0L2,5.4l1.3-1.3c0,0,0,0,0.1,0c0,0,0.1,0,0.1,0l0.2,0.2C3.7,4.3,3.7,4.3,3.6,4.4C3.7,4.4,3.7,4.4,3.6,4.4z" class="st1"/></g><g class="st0"><path d="M0.4,2.6L1.9,1c0,0,0,0,0.1,0s0.1,0,0.1,0l1.6,1.6c0,0,0,0,0,0.1c0,0,0,0.1,0,0.1L3.5,2.9c0,0,0,0-0.1,0 c0,0-0.1,0-0.1,0L2,1.6L0.7,2.9c0,0,0,0-0.1,0s-0.1,0-0.1,0L0.4,2.8C0.3,2.7,0.3,2.7,0.4,2.6C0.3,2.6,0.3,2.6,0.4,2.6z" class="st1"/></g></g></g></svg>