<svg xmlns="http://www.w3.org/2000/svg" xmlns:xlink="http://www.w3.org/1999/xlink" width="180" height="107" version="1.1" viewBox="0 0 180 107"><title>logo_footer</title><desc>Created with Sketch.</desc><g id="Page-1" fill="none" fill-rule="evenodd" stroke="none" stroke-width="1"><g id="logo_footer" fill="#0D4279"><g id="Group"><path id="Shape" d="M165.4,94 C164.3,94.4 163.4,94.5 162.6,94.5 C158.3,94.5 156,90.1 156,86.4 C163.8,85.3 172.8,79.8 172.8,74.2 C172.8,71.4 170.4,69.4 166.6,69.4 C157.9,69.4 149.4,77.3 139.5,87.3 C141.5,83.3 143.7,78.2 146.1,73.9 C158.6,57.4 179.1,22.9 179.1,14.8 C179.1,12 177.6,7.9 175.1,7.9 C171.3,7.9 158.3,26.8 143.1,54.6 C139.7,60.9 134.8,70.6 130.6,79.5 C124,84.4 114.5,90.9 104.4,94.8 C104.4,90.8 110.6,84.5 110.6,79.8 C110.6,78.1 109.8,76.6 107.4,75.5 C105.5,74.7 103.6,73.9 101.2,73.1 C101.6,71.9 101.9,70.7 101.9,69.6 C101.9,66 99.3,63.7 94.5,63.7 C88.7,63.7 84.6,68.7 84.6,73.6 C84.6,75.6 85.1,77.5 86.6,79.2 L86.9,79.6 C82.5,82.2 78.3,83.6 74.1,83.6 C73.2,83.6 72.2,83.6 71.4,83.5 C71.9,81.6 72.3,79.9 72.3,78 C72.3,72.2 69.3,69.5 65,69.5 C61.5,69.5 57.5,71.9 57.5,78 C57.5,81.4 58.8,84.3 61,86.5 C58.3,91.2 54.6,95 49.4,95 C46,95 44.2,92.2 44.2,89.1 C44.2,83.3 49.2,78.5 53.5,76.5 C56.2,75.3 57.3,73.7 57.3,71.9 C57.3,70 56.4,69.1 54.9,69.1 C45.8,69.1 30.7,79.3 30.7,93 C30.7,99.6 35.1,105 44.3,105 C53.4,105 62.8,98.3 68.1,90.4 C69.6,90.8 71.3,91.1 72.9,91.1 C80.7,91.1 87.6,87.9 92.5,84.3 C92.7,84.1 93,84 93.2,83.8 C94.8,84.5 96.6,85 98.7,85.8 C97.2,89.3 92.5,95.2 92.5,98.7 C92.5,102.7 94.4,104.6 97.7,104.6 C103.2,104.6 115.1,98.1 125.2,91.6 C123.4,95.9 122.3,99.2 122.3,100.4 C122.3,102.7 125.1,105.1 127.4,105.1 C130.2,105.1 136,97.6 144.1,90.7 C144.1,96.3 147.5,104.5 154.4,104.5 C161.8,104.5 168.5,101.4 172,99.3 C173.3,98.5 173.5,97.1 173.5,95.7 C173.4,93.7 172.3,92.4 171,92.4 C169.7,92.4 168,92.9 165.4,94 Z"/><path id="Shape" d="M31.6,54.8 C37.2,43.6 42.7,33.7 47.1,26.3 C47.2,26 47.2,25.9 47.2,25.8 C47.2,24.5 44.5,23.3 41.3,22.7 L48.4,20.4 C61,16.5 73.4,14.1 83.7,13 C85.2,12.9 85.7,11.7 85.7,10 C85.8,6.2 82.5,0 78.4,0 C57.4,0 18.1,19.3 1.2,32 C0.4,32.6 0,33.6 0,34.8 C0,37.2 1.5,40 3.4,40 C3.8,40 4.1,39.9 4.5,39.6 C12.4,34.7 21.3,30.4 30.4,26.7 C16.9,52.6 1.6,85 1.6,96.3 C1.6,100.5 6.2,106.2 8.9,106.2 C9.6,106.2 10.2,105.7 10.5,104.7 C14.7,91.8 20.4,78.2 26.4,65.5 C32.8,62.5 40.8,59.9 55.4,58.3 C57,58.6 59.6,47.8 57,48.2 C46.5,49.2 39,51.3 31.6,54.8 Z"/></g></g></g></svg>