<?xml version="1.0" encoding="utf-8"?>
<!-- Generator: Adobe Illustrator 18.1.0, SVG Export Plug-In . SVG Version: 6.00 Build 0)  -->
<svg version="1.1" id="Layer_1" xmlns="http://www.w3.org/2000/svg" xmlns:xlink="http://www.w3.org/1999/xlink" x="0px" y="0px"
	 viewBox="0 0 179 106.2" enable-background="new 0 0 179 106.2" xml:space="preserve">
<g>
	<path fill="#1F83AD" d="M171,92.4c-1.3,0-3,0.5-5.6,1.6c-1.1,0.4-2,0.5-2.8,0.5c-4.3,0-6.6-4.4-6.6-8.1c7.8-1.1,16.8-6.6,16.8-12.2
		c0-2.8-2.4-4.8-6.2-4.8c-8.7,0-17.2,7.9-27.1,17.9c2-4,4.2-9.1,6.6-13.4c12.5-16.5,33-51,33-59.1c0-2.8-1.5-6.9-4-6.9
		c-3.8,0-16.8,18.9-32,46.7c-3.4,6.3-8.3,16-12.5,24.9c-6.6,4.9-16.1,11.4-26.2,15.3c0-4,6.2-10.3,6.2-15c0-1.7-0.8-3.2-3.2-4.3
		c-1.9-0.8-3.8-1.6-6.2-2.4c0.4-1.2,0.7-2.4,0.7-3.5c0-3.6-2.6-5.9-7.4-5.9c-5.8,0-9.9,5-9.9,9.9c0,2,0.5,3.9,2,5.6l0.3,0.4
		c-4.4,2.6-8.6,4-12.8,4c-0.9,0-1.9,0-2.7-0.1c0.5-1.9,0.9-3.6,0.9-5.5c0-5.8-3-8.5-7.3-8.5c-3.5,0-7.5,2.4-7.5,8.5
		c0,3.4,1.3,6.3,3.5,8.5c-2.7,4.7-6.4,8.5-11.6,8.5c-3.4,0-5.2-2.8-5.2-5.9c0-5.8,5-10.6,9.3-12.6c2.7-1.2,3.8-2.8,3.8-4.6
		c0-1.9-0.9-2.8-2.4-2.8c-9.1,0-24.2,10.2-24.2,23.9c0,6.6,4.4,12,13.6,12c9.1,0,18.5-6.7,23.8-14.6c1.5,0.4,3.2,0.7,4.8,0.7
		c7.8,0,14.7-3.2,19.6-6.8c0.2-0.2,0.5-0.3,0.7-0.5c1.6,0.7,3.4,1.2,5.5,2c-1.5,3.5-6.2,9.4-6.2,12.9c0,4,1.9,5.9,5.2,5.9
		c5.5,0,17.4-6.5,27.5-13c-1.8,4.3-2.9,7.6-2.9,8.8c0,2.3,2.8,4.7,5.1,4.7c2.8,0,8.6-7.5,16.7-14.4c0,5.6,3.4,13.8,10.3,13.8
		c7.4,0,14.1-3.1,17.6-5.2c1.3-0.8,1.5-2.2,1.5-3.6C173.4,93.7,172.3,92.4,171,92.4z"/>
	<path fill="#1F83AD" d="M57,48.2c-10.5,1-18,3.1-25.4,6.6c5.6-11.2,11.1-21.1,15.5-28.5c0.1-0.3,0.1-0.4,0.1-0.5
		c0-1.3-2.7-2.5-5.9-3.1l7.1-2.3c12.6-3.9,25-6.3,35.3-7.4c1.5-0.1,2-1.3,2-3C85.8,6.2,82.5,0,78.4,0c-21,0-60.3,19.3-77.2,32
		C0.4,32.6,0,33.6,0,34.8C0,37.2,1.5,40,3.4,40c0.4,0,0.7-0.1,1.1-0.4c7.9-4.9,16.8-9.2,25.9-12.9C16.9,52.6,1.6,85,1.6,96.3
		c0,4.2,4.6,9.9,7.3,9.9c0.7,0,1.3-0.5,1.6-1.5c4.2-12.9,9.9-26.5,15.9-39.2c6.4-3,14.4-5.6,29-7.2C57,58.6,59.6,47.8,57,48.2z"/>
</g>
</svg>
