<?xml version="1.0" encoding="utf-8"?>
<!-- Generator: Adobe Illustrator 23.0.0, SVG Export Plug-In . SVG Version: 6.00 Build 0)  -->
<svg version="1.1" id="Layer_1" xmlns="http://www.w3.org/2000/svg" xmlns:xlink="http://www.w3.org/1999/xlink" x="0px" y="0px"
	 viewBox="0 0 448 448" style="enable-background:new 0 0 448 448;" xml:space="preserve">
<style type="text/css">
	.st0{fill:#068820;}
</style>
<path class="st0" d="M400,0H48C21.5,0,0,21.5,0,48v352c0,26.5,21.5,48,48,48h352c26.5,0,48-21.5,48-48V48C448,21.5,426.5,0,400,0z
	 M368,252c0,6.6-5.4,12-12,12h-92v92c0,6.6-5.4,12-12,12h-56c-6.6,0-12-5.4-12-12v-92H92c-6.6,0-12-5.4-12-12v-56
	c0-6.6,5.4-12,12-12h92V92c0-6.6,5.4-12,12-12h56c6.6,0,12,5.4,12,12v92h92c6.6,0,12,5.4,12,12V252z"/>
</svg>
