<svg xmlns="http://www.w3.org/2000/svg" viewBox="0 0 500 500">
  <title>fork-empty_state</title>
  <circle cx="250" cy="250" r="250" style="fill: #7a7a7a"/>
  <path d="M247.624,112.589l243.088,69.694A249.456,249.456,0,0,0,438.839,86.17Z" style="fill: #f7f7f7;opacity: 0.33"/>
  <path d="M24.06,142.885l223.564-30.3L99.414,50.438A250.981,250.981,0,0,0,24.06,142.885Z" style="fill: #f7f7f7;opacity: 0.33"/>
  <g>
    <path d="M210.248,136.2H282.21v16.355H210.248Z" style="fill: #5b5b5b"/>
    <path d="M214.557,182h64.1l27.065,256.776H188.915Z" style="fill: #b5b5b5"/>
    <path d="M202.07,173.82h89.954V186.9H202.07Z" style="fill: #5b5b5b"/>
    <path d="M278.4,173.82s-.546-16.628,13.629-16.628v-6.269H202.07v6.542s14.446,1.635,14.175,16.355" style="fill: #3d3b3b"/>
    <path d="M287.117,131.3a6.561,6.561,0,0,1-6.542,6.542H211.883a6.561,6.561,0,0,1-6.542-6.542V90.408a6.561,6.561,0,0,1,6.542-6.542h68.692a6.561,6.561,0,0,1,6.542,6.542Z" style="fill: #e5c97a"/>
    <path d="M195.938,368.447H298.31l4.241,39.059-110.778-.261Z" style="fill: #5b5b5b"/>
    <path d="M200.021,327.559H294l-3.62-34.346H203.451Z" style="fill: #5b5b5b"/>
    <path d="M210.311,224.521H283.14l3.1,29.439H207.371Z" style="fill: #5b5b5b"/>
    <path d="M287.117,131.3a6.561,6.561,0,0,1-6.542,6.542H211.883a6.561,6.561,0,0,1-6.542-6.542V90.408a6.561,6.561,0,0,1,6.542-6.542h68.692a6.561,6.561,0,0,1,6.542,6.542Z" style="fill: #efefef"/>
    <path d="M295.3,75.689s-48.621-21.058-98.132,0m104.674,6.542a6.542,6.542,0,0,1-6.542,6.542H197.163a6.542,6.542,0,0,1,0-13.084H295.3A6.542,6.542,0,0,1,301.837,82.231Z" style="fill: #5b5b5b"/>
    <path d="M415.914,373.555c-18.808-24.329-21.262,2.549-49.474,2.453s-23.511,14.106-36.595,12.062-4.293-6.13-10.835-11.854-7.87-4.089-16.457-.409-24.84,15.032-40.787,12.17-23.486-.334-36.8.914-21.67-6.145-36.052-7.564-34.275.394-44.5,2.245-46.542-8.635-48.186-.8C92.3,401.5,79.589,419.537,73.648,427.191A249.2,249.2,0,0,0,249.829,500q3.516,0,7.011-.094c.5-.014.994-.041,1.493-.057q2.5-.079,5-.2A249.506,249.506,0,0,0,442.9,409.033C433.3,399.111,422.907,382.6,415.914,373.555Z" style="fill: #4f4f4f"/>
  </g>
</svg>
